<?xml version="1.0" encoding="UTF-8" standalone="no"?>
<!-- Created with Inkscape (http://www.inkscape.org/) -->

<svg
   width="60.716286mm"
   height="12.79213mm"
   viewBox="0 0 60.716286 12.79213"
   version="1.1"
   id="svg1"
   xml:space="preserve"
   xmlns="http://www.w3.org/2000/svg"
   xmlns:svg="http://www.w3.org/2000/svg"><defs
     id="defs1" /><g
     id="layer1"
     transform="translate(-111.97753,-143.49439)"><rect
       style="opacity:0;fill:#000000;stroke-width:0.239815"
       id="rect3"
       width="60.716293"
       height="12.792135"
       x="111.97753"
       y="143.49437"
       ry="1.1771903" /><g
       id="g2"
       transform="translate(30.169184,7.2446429)"><rect
         style="fill:#ffffff;stroke-width:0.265528"
         id="rect2"
         width="8.4634829"
         height="8.4634829"
         x="82.016098"
         y="136.40398"
         ry="1.3904494" /><rect
         style="fill:#000000;stroke-width:0.157923"
         id="rect2-2"
         width="5.0337076"
         height="5.0337081"
         x="82.733475"
         y="137.18123"
         ry="0.82697809" /><rect
         style="fill:#000000;stroke-width:0.08262"
         id="rect2-2-0"
         width="2.5687296"
         height="2.6998229"
         x="86.941551"
         y="141.35768"
         ry="0.44354865" /></g><path
       style="font-size:5.64444px;font-family:Poppins;-inkscape-font-specification:Poppins;fill:#ffffff;stroke-width:0.587497"
       d="m 126.33044,146.51084 q 0.56444,0 0.9144,0.34431 0.34995,0.33866 0.34995,0.98213 v 1.82315 h -0.508 v -1.74977 q 0,-0.46285 -0.23142,-0.70556 -0.23142,-0.24835 -0.63218,-0.24835 -0.4064,0 -0.64911,0.254 -0.23706,0.254 -0.23706,0.73942 v 1.71026 h -0.51365 v -3.09315 h 0.51365 v 0.44027 q 0.1524,-0.23707 0.41204,-0.36689 0.26529,-0.12982 0.58138,-0.12982 z m 1.91346,1.59173 q 0,-0.47414 0.19191,-0.82974 0.19191,-0.36124 0.52493,-0.5588 0.33867,-0.19755 0.75071,-0.19755 0.4064,0 0.70556,0.17498 0.29915,0.17497 0.44591,0.44026 v -0.56444 h 0.51929 v 3.09315 h -0.51929 v -0.57573 q -0.1524,0.27093 -0.4572,0.45155 -0.29916,0.17498 -0.69991,0.17498 -0.41205,0 -0.74507,-0.2032 -0.33302,-0.2032 -0.52493,-0.57009 -0.19191,-0.36688 -0.19191,-0.83537 z m 2.61902,0.006 q 0,-0.34995 -0.14111,-0.6096 -0.14111,-0.25964 -0.38382,-0.39511 -0.23707,-0.14111 -0.52494,-0.14111 -0.28786,0 -0.52493,0.13547 -0.23707,0.13546 -0.37818,0.39511 -0.14111,0.25964 -0.14111,0.6096 0,0.3556 0.14111,0.62089 0.14111,0.25964 0.37818,0.40075 0.23707,0.13547 0.52493,0.13547 0.28787,0 0.52494,-0.13547 0.24271,-0.14111 0.38382,-0.40075 0.14111,-0.26529 0.14111,-0.61525 z m 2.89559,-1.59737 q 0.56444,0 0.9144,0.34431 0.34995,0.33866 0.34995,0.98213 v 1.82315 h -0.508 v -1.74977 q 0,-0.46285 -0.23142,-0.70556 -0.23142,-0.24835 -0.63217,-0.24835 -0.4064,0 -0.64912,0.254 -0.23706,0.254 -0.23706,0.73942 v 1.71026 h -0.51365 v -3.09315 h 0.51365 v 0.44027 q 0.1524,-0.23707 0.41204,-0.36689 0.26529,-0.12982 0.58138,-0.12982 z m 3.45439,3.20039 q -0.43462,0 -0.79022,-0.19755 -0.34995,-0.19756 -0.55315,-0.5588 -0.19756,-0.36689 -0.19756,-0.84667 0,-0.47413 0.2032,-0.83538 0.20885,-0.36688 0.56444,-0.5588 0.3556,-0.19755 0.79587,-0.19755 0.44027,0 0.79587,0.19755 0.3556,0.19192 0.5588,0.55316 0.20884,0.36124 0.20884,0.84102 0,0.47978 -0.21449,0.84667 -0.20884,0.36124 -0.57009,0.5588 -0.36124,0.19755 -0.80151,0.19755 z m 0,-0.45155 q 0.27658,0 0.51929,-0.12982 0.24271,-0.12983 0.38947,-0.38947 0.1524,-0.25965 0.1524,-0.63218 0,-0.37253 -0.14676,-0.63218 -0.14675,-0.25964 -0.38382,-0.38382 -0.23707,-0.12982 -0.51364,-0.12982 -0.28223,0 -0.51929,0.12982 -0.23142,0.12418 -0.37254,0.38382 -0.14111,0.25965 -0.14111,0.63218 0,0.37818 0.13547,0.63782 0.14111,0.25965 0.37253,0.38947 0.23143,0.12418 0.508,0.12418 z m 4.8655,0.45155 q -0.3556,0 -0.63782,-0.11853 -0.28223,-0.12418 -0.44591,-0.33867 -0.16369,-0.22013 -0.18063,-0.50235 h 0.53058 q 0.0226,0.23142 0.21449,0.37818 0.19756,0.14675 0.51364,0.14675 0.29352,0 0.46285,-0.12982 0.16933,-0.12982 0.16933,-0.32738 0,-0.2032 -0.18062,-0.29915 -0.18062,-0.1016 -0.5588,-0.19756 -0.34431,-0.0903 -0.56444,-0.18062 -0.21449,-0.096 -0.37254,-0.27658 -0.1524,-0.18627 -0.1524,-0.48542 0,-0.23707 0.14111,-0.43462 0.14111,-0.19756 0.40076,-0.31045 0.25964,-0.11853 0.59267,-0.11853 0.51364,0 0.82973,0.25964 0.31609,0.25965 0.33866,0.7112 h -0.51364 q -0.0169,-0.24271 -0.19755,-0.38946 -0.17498,-0.14676 -0.47414,-0.14676 -0.27658,0 -0.44026,0.11853 -0.16369,0.11854 -0.16369,0.31045 0,0.1524 0.0959,0.254 0.1016,0.096 0.24836,0.15804 0.1524,0.0565 0.41769,0.12983 0.33302,0.0903 0.54186,0.18062 0.20885,0.0847 0.3556,0.25964 0.1524,0.17498 0.15805,0.4572 0,0.254 -0.14111,0.4572 -0.14112,0.2032 -0.40076,0.32173 -0.254,0.11289 -0.58702,0.11289 z m 4.51555,-3.14395 -1.86267,4.54942 h -0.53058 l 0.6096,-1.49013 -1.24742,-3.05929 h 0.57009 l 0.97084,2.50613 0.95956,-2.50613 z m 1.02728,-1.08373 v 4.17688 h -0.51364 v -4.17688 z m 1.38853,0 v 4.17688 h -0.51365 v -4.17688 z m 0.68296,2.61902 q 0,-0.47414 0.19192,-0.82974 0.19191,-0.36124 0.52493,-0.5588 0.33867,-0.19755 0.75071,-0.19755 0.4064,0 0.70555,0.17498 0.29916,0.17497 0.44592,0.44026 v -0.56444 h 0.51928 v 3.09315 h -0.51928 v -0.57573 q -0.1524,0.27093 -0.4572,0.45155 -0.29916,0.17498 -0.69992,0.17498 -0.41204,0 -0.74506,-0.2032 -0.33302,-0.2032 -0.52493,-0.57009 -0.19192,-0.36688 -0.19192,-0.83537 z m 2.61903,0.006 q 0,-0.34995 -0.14112,-0.6096 -0.14111,-0.25964 -0.38382,-0.39511 -0.23706,-0.14111 -0.52493,-0.14111 -0.28787,0 -0.52493,0.13547 -0.23707,0.13546 -0.37818,0.39511 -0.14111,0.25964 -0.14111,0.6096 0,0.3556 0.14111,0.62089 0.14111,0.25964 0.37818,0.40075 0.23706,0.13547 0.52493,0.13547 0.28787,0 0.52493,-0.13547 0.24271,-0.14111 0.38382,-0.40075 0.14112,-0.26529 0.14112,-0.61525 z m 1.90216,-0.9652 q 0.15805,-0.27658 0.46285,-0.45155 0.3048,-0.17498 0.69426,-0.17498 0.41769,0 0.75071,0.19755 0.33303,0.19756 0.52494,0.5588 0.19191,0.3556 0.19191,0.82974 0,0.46849 -0.19191,0.83537 -0.19191,0.36689 -0.53058,0.57009 -0.33302,0.2032 -0.74507,0.2032 -0.40075,0 -0.70555,-0.17498 -0.29916,-0.17497 -0.45156,-0.44591 v 0.57009 h -0.51364 v -4.17688 h 0.51364 z m 2.09974,0.95956 q 0,-0.34996 -0.14112,-0.6096 -0.14111,-0.25965 -0.38382,-0.39511 -0.23706,-0.13547 -0.52493,-0.13547 -0.28222,0 -0.52493,0.14111 -0.23707,0.13547 -0.38383,0.40076 -0.14111,0.25964 -0.14111,0.60395 0,0.34996 0.14111,0.61525 0.14676,0.25964 0.38383,0.40075 0.24271,0.13547 0.52493,0.13547 0.28787,0 0.52493,-0.13547 0.24271,-0.14111 0.38382,-0.40075 0.14112,-0.26529 0.14112,-0.62089 z m 3.94545,-1.53529 v 3.09315 h -0.51364 v -0.4572 q -0.14676,0.23707 -0.41205,0.37254 -0.25964,0.12982 -0.57573,0.12982 -0.36124,0 -0.64911,-0.14676 -0.28787,-0.1524 -0.4572,-0.45155 -0.16369,-0.29916 -0.16369,-0.72814 V 146.568 h 0.508 v 1.74413 q 0,0.4572 0.23142,0.70556 0.23142,0.24271 0.63218,0.24271 0.41204,0 0.64911,-0.254 0.23707,-0.254 0.23707,-0.73942 V 146.568 Z m 1.96426,3.14395 q -0.3556,0 -0.63782,-0.11853 -0.28222,-0.12418 -0.44591,-0.33867 -0.16369,-0.22013 -0.18062,-0.50235 h 0.53058 q 0.0226,0.23142 0.21448,0.37818 0.19756,0.14675 0.51365,0.14675 0.29351,0 0.46284,-0.12982 0.16934,-0.12982 0.16934,-0.32738 0,-0.2032 -0.18063,-0.29915 -0.18062,-0.1016 -0.5588,-0.19756 -0.34431,-0.0903 -0.56444,-0.18062 -0.21449,-0.096 -0.37253,-0.27658 -0.1524,-0.18627 -0.1524,-0.48542 0,-0.23707 0.14111,-0.43462 0.14111,-0.19756 0.40075,-0.31045 0.25965,-0.11853 0.59267,-0.11853 0.51364,0 0.82973,0.25964 0.31609,0.25965 0.33867,0.7112 h -0.51365 q -0.0169,-0.24271 -0.19755,-0.38946 -0.17498,-0.14676 -0.47413,-0.14676 -0.27658,0 -0.44027,0.11853 -0.16369,0.11854 -0.16369,0.31045 0,0.1524 0.096,0.254 0.1016,0.096 0.24835,0.15804 0.1524,0.0565 0.41769,0.12983 0.33302,0.0903 0.54187,0.18062 0.20884,0.0847 0.3556,0.25964 0.1524,0.17498 0.15804,0.4572 0,0.254 -0.14111,0.4572 -0.14111,0.2032 -0.40076,0.32173 -0.254,0.11289 -0.58702,0.11289 z"
       id="text2"
       aria-label="nano syllabus" /></g></svg>
